<?xml version="1.0" encoding="utf-8"?>
<!-- Generator: Adobe Illustrator 21.0.0, SVG Export Plug-In . SVG Version: 6.00 Build 0)  -->
<svg version="1.1" id="Layer_3" xmlns="http://www.w3.org/2000/svg" xmlns:xlink="http://www.w3.org/1999/xlink" x="0px" y="0px"
	 viewBox="0 0 635.4 118" style="enable-background:new 0 0 635.4 118;" xml:space="preserve">
<style type="text/css">
	.st0{fill:#F7981D;}
	.st1{fill:#FFFFFF;}
</style>
<title>logo</title>
<path class="st0" d="M239.9,50.8v66.5h-30.2V0.5c9.6,0,19.2-0.1,28.8,0.2c1.3,0,2.7,2.1,3.7,3.5c13.5,19.9,27.1,39.8,40.5,59.7
	c1,1.5,2,2.9,3.9,5.7V0.8c1.9-0.1,3.4-0.3,4.8-0.3c25.4,0,50.9-0.1,76.3,0.1c6.5,0,12.9,0.8,19.2,2.3c18.3,4.5,29.6,16.5,34.1,34.6
	c3.8,14.7,3.6,30.2-0.5,44.8c-5.5,19.7-20.7,33.1-41.1,34.3c-21.5,1.2-43.1,0.9-64.7,1.1c-7.8,0.1-15.6-0.1-23.4,0.1
	c-2.8,0.1-4.4-0.9-6-3.2c-13.8-20.3-27.8-40.5-41.8-60.7c-0.8-1.2-1.7-2.3-2.6-3.5L239.9,50.8z M296,88.9h41.8
	c0.3-0.8,0.5-1.7,0.6-2.6c0-25.4,0-50.8,0.1-76.2c0-3-1.5-3.6-4-3.6c-6.8,0.1-13.6,0-20.4,0h-18L296,88.9z M356.9,25v67.5
	c5,0,9.7,0.3,14.2-0.1c10.5-0.8,17.1-6.7,19.8-16.7c3.1-11.2,3-23.1-0.3-34.3c-2.3-7.6-7.2-13.3-15.1-15
	C369.5,25.3,363.3,25.4,356.9,25z M296,99.2v12.2c2,0.1,3.8,0.3,5.6,0.3c9,0,17.9,0,26.9,0c10.9,0,10.9,0,9.7-11
	c-0.1-0.5-0.4-1-0.6-1.5H296z"/>
<path class="st1" d="M514.1,117.9L543,76.7c3.4-4.9,6.7-9.9,10.4-14.6c2-2.6,2.1-4.4,0.1-7.3c-11.8-16.4-23.4-33-35-49.6
	c-0.9-1.3-1.8-2.7-3.2-4.8c12.6,0,24.5-0.1,36.3,0.1c1,0,2.3,1.7,3.1,2.8c6.5,9.2,13,18.4,19.9,28.3L582,21
	c2.8-3.9,6.1-7.6,8.2-11.8c3.8-7.5,9.4-9.9,17.6-9c7.5,0.8,15.2,0.2,24,0.2l-39.7,56.2l43.2,61.3c-12.7,0-24.4,0.1-36.1-0.2
	c-1.3,0-2.9-1.9-3.9-3.3c-7.3-10.2-14.5-20.6-22.1-31.3c-7.2,10.2-14.4,19.9-21,30c-2.5,3.8-5.3,5.1-9.7,4.9
	C533.5,117.7,524.4,117.9,514.1,117.9z"/>
<path class="st0" d="M150.4,46.5c12.9,0,25.5,0.2,38.1-0.1c4.7-0.1,6.6,1.2,6.2,6.1c-0.4,4.6-0.4,9.3,0,13.9
	c0.3,4.3-1.4,5.3-5.5,5.2c-11-0.2-21.9-0.1-32.9-0.1h-5.8v21.2h50.4v24.6H120V0.9h81v24.4h-50.5L150.4,46.5z"/>
<path class="st1" d="M430.3,117.5V0.7h81.5v24.6c-1.7,0.1-3.5,0.2-5.2,0.2c-13.8,0-27.6,0.1-41.4,0c-3.4,0-4.8,0.9-4.6,4.5
	c0.3,5.3,0.1,10.5,0.1,16.2h44.1v25.6h-44.1c0,6.5-0.2,12.5,0.2,18.4c0.1,1,2.7,2.5,4.1,2.5c13.6,0.2,27.2,0.1,40.9,0.1h5.8v24.8
	L430.3,117.5z"/>
<path class="st0" d="M0,0.5c10,0,19.8-0.2,29.5,0.2c1.4,0.1,3.3,2.7,3.9,4.5c7.8,24.1,15.4,48.3,23,72.4c0.3,1.1,0.8,2.2,1.7,4.6
	L84,0.7h32.6c-4.4,11.6-8.8,22.9-13,34.1c-9.9,26-19.9,52-29.7,78c-1.3,3.6-2.8,5.3-7,5c-6.3-0.4-12.6,0.1-18.9-0.2
	c-1.5-0.1-3.9-1.3-4.4-2.6C29,77.6,14.6,40.3,0.3,2.8C0.1,2,0,1.3,0,0.5z"/>
<rect x="340.7" y="20.2" class="st1" width="13" height="9.1"/>
<rect x="342.8" y="33.5" class="st1" width="8.8" height="2.7"/>
<rect x="342.8" y="41.2" class="st1" width="8.8" height="2.7"/>
<rect x="342.8" y="48.8" class="st1" width="8.8" height="2.7"/>
<rect x="342.8" y="56.5" class="st1" width="8.8" height="2.7"/>
<rect x="342.8" y="64.2" class="st1" width="8.8" height="2.7"/>
<rect x="342.8" y="71.9" class="st1" width="8.8" height="2.7"/>
</svg>
