<?xml version="1.0" encoding="UTF-8" standalone="yes"?>
<svg xmlns="http://www.w3.org/2000/svg" viewBox="0 0 26 26" width="26" height="26" fill="#000000">
  <path d="M 5 0 C 3.894531 0 3 0.894531 3 2 L 3 24 C 3 25.105469 3.894531 26 5 26 L 21 26 C 22.105469 26 23 25.105469 23 24 L 23 2 C 23 0.894531 22.105469 0 21 0 Z M 5 2 L 17 2 L 17 16 L 5 16 Z M 7 4 L 7 8 L 9 8 L 9 4 Z M 10 4 L 10 8 L 12 8 L 12 4 Z M 13 4 L 13 8 L 15 8 L 15 4 Z M 19 6 L 21 6 L 21 7 L 19 7 Z M 19 8 L 21 8 L 21 9 L 19 9 Z M 7 10 L 7 14 L 9 14 L 9 10 Z M 10 10 L 10 14 L 12 14 L 12 10 Z M 13 10 L 13 14 L 15 14 L 15 10 Z M 19 10 L 21 10 L 21 11 L 19 11 Z M 19 12 L 21 12 L 21 13 L 19 13 Z M 20 16 C 20.550781 16 21 16.449219 21 17 L 21 18 L 19 18 L 19 17 C 19 16.449219 19.449219 16 20 16 Z M 5 18 L 17 18 L 17 23 L 5 23 Z M 12.75 19.125 L 8.84375 19.90625 L 9.21875 21.875 L 13.15625 21.09375 Z"/>
</svg>
